# xmcd CD database file
#
# Track frame offsets:
#	150
#	11566
#	22623
#	33221
#	47545
#	59630
#	72137
#	84952
#	96681
#	108498
#	123708
#	136474
#	148550
#	158467
#	168091
#	180229
#	193113
#	205300
#	217683
#	229873
#	244073
#	257289
#	267810
#	279573
#	293205
#	307617
#
# Disc length: 4256 seconds
#
# Revision: 0
# Processed by: cddbd v1.5.2PL0 Copyright (c) Steve Scherf et al.
# Submitted via: CDex 1.51
#
DISCID=5b109e1a
DTITLE=George Shearing - The Complete Quintet Studio Sessions CD3
DYEAR=1951
DGENRE=Jazz
TTITLE0=Appreciation
TTITLE1=Over The Rainbow
TTITLE2=Thine Alone
TTITLE3=You're Driving Me Crazy
TTITLE4=Taking A Chance Of Love
TTITLE5=I Hear Music
TTITLE6=Ghost Of A Chance
TTITLE7=Wait Till You See Her
TTITLE8=Swedish Pastry
TTITLE9=Lonely Moments
TTITLE10=How High The Moon
TTITLE11=Love, Your Magic Spell Is Everywhere
TTITLE12=I's Easy To Remember
TTITLE13=I Wished On The Moon
TTITLE14=Midnight Belongs To You
TTITLE15=Night Flight
TTITLE16=There's A Lull In My Life
TTITLE17=When Lights Are Low
TTITLE18=Lullaby Of Birdland
TTITLE19=Moonlight In Vermont
TTITLE20=Love Nest
TTITLE21=Basic English
TTITLE22=I Hear A Rhapsody
TTITLE23=Spring Is Here
TTITLE24=The Lady Is A Tramp
TTITLE25=Body And Soul
EXTD=YEAR: 1951
EXTT0=
EXTT1=
EXTT2=
EXTT3=
EXTT4=
EXTT5=
EXTT6=
EXTT7=
EXTT8=
EXTT9=
EXTT10=
EXTT11=
EXTT12=
EXTT13=
EXTT14=
EXTT15=
EXTT16=
EXTT17=
EXTT18=
EXTT19=
EXTT20=
EXTT21=
EXTT22=
EXTT23=
EXTT24=
EXTT25=
PLAYORDER=
